<?xml version="1.0" encoding="utf-8"?>
<!-- Generator: Adobe Illustrator 16.0.0, SVG Export Plug-In . SVG Version: 6.00 Build 0)  -->
<!DOCTYPE svg PUBLIC "-//W3C//DTD SVG 1.1//EN" "http://www.w3.org/Graphics/SVG/1.1/DTD/svg11.dtd">
<svg version="1.1" id="Layer_1" xmlns="http://www.w3.org/2000/svg" xmlns:xlink="http://www.w3.org/1999/xlink" x="0px" y="0px"
	 width="64.981px" height="182.693px" viewBox="0 0 64.981 182.693" enable-background="new 0 0 64.981 182.693"
	 xml:space="preserve">
<path d="M62.413,91.924c-0.535,2.031-1.08,4.063-1.643,6.086c-3.545,12.75-10.248,24.058-17.409,35.075
	c-3.134,4.819-5.543,9.534-6.282,15.644c-1.084,9.02-4.106,17.82-6.452,26.678c-0.491,1.846-1.817,3.24-4.126,2.797
	c-0.208-0.113-0.338-0.274-0.393-0.476c-0.051-0.209,0.01-0.508-0.099-0.62c-0.242-0.242-0.209,0.249-0.411,0.226
	c-1.257,0.628-1.036,2.079-1.628,3.087c-0.596,1.016-0.971,1.975-2.335,1.757c-1.636-0.258-1.781-1.66-1.667-2.797
	c-3.925,0.459-4.445,1.451-4.816,2.813c-0.092,0.347-0.177,0.71-2.063,0.354c-2.16-0.402-1.495-2.506-1.737-3.917
	c-0.161-0.935,0.804-2.28-1.25-1.845c-3.103,1.426-3.542,1.249-3.711-1.508c1.121-5.553,3.956-10.502,5.582-15.877
	c0.564-1.87,1.195-3.732,1.809-5.594c0.208-0.629,0.274-1.387-0.296-1.652c-0.433-0.21-1.235-0.016-1.683,0.282
	c-1.531,1.031-2.99,2.176-4.461,3.288c-1.298,0.983-2.674,1.733-4.375,1.709c-1.175-0.008-2.261-0.193-2.774-1.387
	c-0.528-1.241,0.091-2.225,1.052-2.877c6.625-4.497,11.425-11.453,18.751-14.842c6.951-3.221,8.855-8.979,9.938-15.596
	c2.249-13.754,5.231-27.277,12.649-39.368c0.922-1.499,0.769-3.066,0.787-4.642c0.112-9.446-0.791-18.997,1.631-28.249
	c1.226-4.683,1.113-9.293,1.347-14.012c0.508-10.224,2.374-20.137,8.926-28.672c2.11-2.756,4.481-4.888,7.14-6.472
	C63.241,0.826,64.098,0.387,64.981,0c0,27.266,0,54.532,0,81.798C64.147,85.179,63.296,88.556,62.413,91.924z"/>
</svg>
