<?xml version="1.0" encoding="utf-8"?>
<!-- Generator: Adobe Illustrator 16.0.0, SVG Export Plug-In . SVG Version: 6.00 Build 0)  -->
<!DOCTYPE svg PUBLIC "-//W3C//DTD SVG 1.1//EN" "http://www.w3.org/Graphics/SVG/1.1/DTD/svg11.dtd">
<svg version="1.1" id="Layer_1" xmlns="http://www.w3.org/2000/svg" xmlns:xlink="http://www.w3.org/1999/xlink" x="0px" y="0px"
	 width="49.125px" height="62.25px" viewBox="0 0 49.125 62.25" enable-background="new 0 0 49.125 62.25" xml:space="preserve">
<path stroke="#000000" stroke-linecap="round" stroke-linejoin="round" d="M9.177,61.729c0-1.982-0.336-3.974-1.233-5.972
	c-1.213-2.709-2.696-5.234-2.789-8.302c-0.02-0.693-0.221-1.54-0.661-2.026c-4.554-5.09-5.042-10.522-1.755-16.471
	c0.481-0.875,0.235-2.168,0.274-3.264c0.119-3.438-0.288-6.887,0.554-10.292C5.84,6.215,12.153,1.488,21.897,0.669
	c3.311-0.278,6.598-0.097,9.875,0.75c9.445,2.434,13.77,10.345,14.422,19.029c0.295,3.876-0.273,7.6,1.66,11.549
	c1.891,3.869-0.064,8.305-1.994,12.288c-2.736,5.653-5.59,11.303-6.094,17.444C29.571,61.729,19.374,61.729,9.177,61.729z"/>
</svg>
