<?xml version="1.0" encoding="utf-8"?>
<!-- Generator: Adobe Illustrator 16.0.0, SVG Export Plug-In . SVG Version: 6.00 Build 0)  -->
<!DOCTYPE svg PUBLIC "-//W3C//DTD SVG 1.1//EN" "http://www.w3.org/Graphics/SVG/1.1/DTD/svg11.dtd">
<svg version="1.1" id="Layer_1" xmlns="http://www.w3.org/2000/svg" xmlns:xlink="http://www.w3.org/1999/xlink" x="0px" y="0px"
	 width="86.707px" height="44.8px" viewBox="0 0 86.707 44.8" enable-background="new 0 0 86.707 44.8" xml:space="preserve">
<path d="M45.312,38.908c0.087-2.313-1.538-2.071-3.013-1.982c-2.583,0.145-0.701,2.426-1.596,3.385
	c-0.137,1.516-0.371,3.015-0.677,4.489c-13.291,0-26.585,0-39.875,0c-0.274-7.028-0.206-14.08,0.447-21.156
	C1.353,15.515,4.258,7.951,5.576,0c25.271,0,50.546,0,75.817,0c1.567,7.556,3.115,15.116,4.275,22.732
	c1.104,7.237,1.346,14.628,0.637,22.067c-13.359,0-26.718,0-40.072,0C45.79,42.865,45.509,40.891,45.312,38.908z"/>
</svg>
