<?xml version="1.0" encoding="utf-8"?>
<!-- Generator: Adobe Illustrator 16.0.0, SVG Export Plug-In . SVG Version: 6.00 Build 0)  -->
<!DOCTYPE svg PUBLIC "-//W3C//DTD SVG 1.1//EN" "http://www.w3.org/Graphics/SVG/1.1/DTD/svg11.dtd">
<svg version="1.1" id="Layer_1" xmlns="http://www.w3.org/2000/svg" xmlns:xlink="http://www.w3.org/1999/xlink" x="0px" y="0px"
	 width="86.399px" height="194.95px" viewBox="0 0 86.399 194.95" enable-background="new 0 0 86.399 194.95" xml:space="preserve">
<path d="M40.121,0c-0.681,3.32-1.713,6.553-2.772,9.744c-2.007,6.045-2.662,12.299-2.781,18.473
	c-0.306,16.136-2.321,31.933-7.084,47.367c-1.332,4.319-0.077,8.607,0.504,12.847c1.201,8.753,1.519,17.24,0.094,26.21
	c-1.71,10.76-2.798,21.866-1.283,32.973c0.556,4.07,0.741,8.084,2.515,11.888c0.895,1.927,0.231,4.03-0.266,6.028
	c0.327,0.903,0.02,1.935,0.552,2.797c1.73,5.924-0.284,11.937,0.512,17.949c0.715,5.408-3.627,8.35-8.975,8.486
	c-2.796,0.064-5.507-0.064-8.257-0.306c-6.823-0.597-9.225-4.9-6.267-11.22c1.547-3.296,3.333-6.496,4.13-10.099
	c2.757-12.452,1.123-24.558-2.192-36.72c-2.98-10.945-5.319-22.083-7.558-33.206c-1.821-9.059-1.007-18.134,1.384-27.032
	c0.84-3.127,0.915-6.391,0.963-9.478c0.113-6.964,1.386-13.871,0.866-20.843c-0.615-8.261-1.547-16.498-2.37-24.743
	C1.132,14.089,0.52,7.053,0.246,0C13.536,0,26.831,0,40.121,0z"/>
<path d="M86.399,0c-0.036,0.371-0.072,0.733-0.113,1.096c-0.713,6.649-0.592,13.396-1.563,20.053
	c-1.677,11.525-2.281,23.1-1.963,34.745c0.229,8.286,0.576,16.49,2.35,24.679c1.99,9.213,0.986,18.506-0.67,27.79
	c-2.691,15.136-7.777,29.732-9.912,44.973c-0.508,3.611-0.746,7.229,0.455,10.824c0.423,1.266,0.543,2.717,0.455,4.063
	c-0.314,4.9,1.479,9.164,3.731,13.322c0.379,0.701,0.794,1.395,1.097,2.136c2.724,6.722,0.418,9.938-6.818,10.856
	c-3.43,0.436-6.791-0.064-10.184,0.371c-3.414,0.436-6.234-2.45-6.549-7.294c-0.398-6.125-0.057-12.299,0.076-18.457
	c0.149-6.898,2.725-13.379,2.894-20.076c0.347-13.411,0.589-26.863-2.185-40.17c-1.188-5.706-0.297-11.59,0.593-17.353
	c0.436-2.805,0.826-5.609,1.241-8.414c0.399-0.652,0.645-1.33,0.42-2.111c0.02-6.448-2.547-12.34-4.07-18.449
	c-2.217-8.865-2.886-17.876-3.265-26.967c-0.451-10.784-1.145-21.561-4.981-31.853C46.981,2.539,46.617,1.281,46.327,0
	C59.682,0,73.04,0,86.399,0z"/>
</svg>
