<?xml version="1.0" encoding="utf-8"?>
<!-- Generator: Adobe Illustrator 16.0.0, SVG Export Plug-In . SVG Version: 6.00 Build 0)  -->
<!DOCTYPE svg PUBLIC "-//W3C//DTD SVG 1.1//EN" "http://www.w3.org/Graphics/SVG/1.1/DTD/svg11.dtd">
<svg version="1.1" id="Layer_1" xmlns="http://www.w3.org/2000/svg" xmlns:xlink="http://www.w3.org/1999/xlink" x="0px" y="0px"
	 width="90.563px" height="106.638px" viewBox="0 0 90.563 106.638" enable-background="new 0 0 90.563 106.638"
	 xml:space="preserve">
<path d="M90.563,103.466c0-27.318,0-54.632,0-81.946c-0.786-0.274-1.604-0.5-2.454-0.685c-7.686-1.66-14.62-4.735-21.805-7.439
	c-2.588-0.975-3.877-2.729-4.615-5.279C60.87,5.295,60.661,2.604,60.87,0C50.675,0,40.478,0,30.28,0c0,3.78-1.225,7.528-2.128,11.26
	c-0.121,0.487-0.786,1.015-1.31,1.201c-6.355,2.192-11.985,6.367-18.848,7.137C5.1,19.924,2.442,20.601,0,21.668
	C0,48.935,0,76.2,0,103.466c1.683-6.814,3.296-13.641,4.993-20.447c0.153-0.608,0.902-0.633,1.6,0.722
	c0.316,1.306,0.685,2.595,0.943,3.909c1.02,5.255,2.595,10.518,5.758,18.988c21.604,0,43.208,0,64.812,0
	c3.203-9.813,4.783-16.328,6.008-22.897c0.291-1.923,0.955-2.039,1.597-0.722c1.575,6.541,3.368,13.033,4.683,19.621"/>
</svg>
