<?xml version="1.0" encoding="utf-8"?>
<!-- Generator: Adobe Illustrator 16.0.0, SVG Export Plug-In . SVG Version: 6.00 Build 0)  -->
<!DOCTYPE svg PUBLIC "-//W3C//DTD SVG 1.1//EN" "http://www.w3.org/Graphics/SVG/1.1/DTD/svg11.dtd">
<svg version="1.1" id="Layer_1" xmlns="http://www.w3.org/2000/svg" xmlns:xlink="http://www.w3.org/1999/xlink" x="0px" y="0px"
	 width="66.538px" height="44.454px" viewBox="0 0 66.538 44.454" enable-background="new 0 0 66.538 44.454" xml:space="preserve">
<path d="M0,44.454c22.179,0,44.36,0,66.538,0c-1.238-9.844-3.59-16.165-6.172-22.417c-1.156-2.793-2.135-5.772-2.488-8.75
	c-0.307-2.604,0.051-5.407,0.68-7.984c0.432-1.77,0.877-3.538,1.33-5.302C42.141,0,24.397,0,6.652,0
	c0.452,1.765,0.896,3.532,1.329,5.302c0.628,2.577,0.986,5.38,0.679,7.984c-0.353,2.978-1.331,5.957-2.486,8.75
	C3.591,28.29,1.239,34.61,0,44.454z"/>
</svg>
