<?xml version="1.0" encoding="utf-8"?>
<!-- Generator: Adobe Illustrator 16.0.0, SVG Export Plug-In . SVG Version: 6.00 Build 0)  -->
<!DOCTYPE svg PUBLIC "-//W3C//DTD SVG 1.1//EN" "http://www.w3.org/Graphics/SVG/1.1/DTD/svg11.dtd">
<svg version="1.1" id="Layer_1" xmlns="http://www.w3.org/2000/svg" xmlns:xlink="http://www.w3.org/1999/xlink" x="0px" y="0px"
	 width="46.458px" height="159.23px" viewBox="0 0 46.458 159.23" enable-background="new 0 0 46.458 159.23" xml:space="preserve">
<path d="M37.831,139.104c5.156,9.809,5.916,12.279,6.379,14.041c0.465,1.76,0.635,2.816,0.254,3.43
	c-0.379,0.611-1.309,0.779-2.068,0.105c-0.76-0.676-1.35-2.195-2.238-4.137c-0.887-1.943-2.068-4.307-2.828-5.637
	s-1.096-1.625-1.393-1.646s-0.549,0.23-0.127,2.301c0.424,2.068,1.52,5.951,2.068,8.127c0.549,2.172,0.549,2.639,0.105,3.039
	s-1.328,0.74-1.998,0.287c-0.67-0.455-1.121-1.701-1.68-3.945c-0.557-2.24-1.223-5.48-1.762-7.172
	c-0.541-1.689-0.955-1.826-1.248-1.787c-0.289,0.043-0.455,0.266-0.5,2.105c-0.047,1.842,0.031,5.303-0.086,7.443
	c-0.113,2.141-0.422,2.961-0.918,3.236c-0.496,0.273-1.18,0-1.557-0.77c-0.375-0.77-0.443-2.035-0.426-4.035
	c0.018-2.002,0.119-4.738,0.086-6.242c-0.035-1.504-0.207-1.777-0.445-1.932c-0.24-0.154-0.549-0.189-0.889,0.701
	c-0.344,0.889-0.719,2.701-1.146,3.916c-0.428,1.213-0.906,1.828-1.469,2c-0.566,0.17-1.217-0.104-1.369-0.854
	c-0.154-0.754,0.188-1.984,0.615-3.813c0.428-1.832,0.939-4.26,1.248-6.242s0.41-3.521-2.117-8.568
	c-1.26-2.445-2.098-5.105-3.314-7.668c-4.646-9.796-8.36-19.903-11.155-30.332c-1.724-6.436-2.72-13.063-4.154-19.58
	C2.532,70.185,1.173,64.936,0,59.645C0,39.764,0,19.881,0,0c2.772,1.248,5.308,2.942,7.453,5.408
	c2.243,2.578,2.993,5.744,3.642,8.957c1.034,5.117,2.202,10.213,3.039,15.362c0.71,4.368,1.083,8.793,1.513,13.202
	c0.67,6.868,1.234,13.748,1.9,20.617c0.426,4.391,0.83,8.729,2.266,13.019c1.9,5.675,3.4,11.543,4.424,17.442
	c1.301,7.504,1.881,15.128,2.918,22.68c0.541,3.939,1.707,7.584,5.291,10.086c1.881,1.311,3.441,3.119,5.012,4.828
	c2.84,3.098,5.578,6.291,8.361,9.443c0.096,0.111,0.264,0.201,0.287,0.322c0.146,0.748,0.5,1.582,0.283,2.213
	c-0.111,0.322-1.383,0.568-1.93,0.35c-1.123-0.449-2.156-1.174-3.145-1.898C40.26,141.252,39.297,140.348,37.831,139.104z"/>
</svg>
