<?xml version="1.0" encoding="utf-8"?>
<!-- Generator: Adobe Illustrator 16.0.0, SVG Export Plug-In . SVG Version: 6.00 Build 0)  -->
<!DOCTYPE svg PUBLIC "-//W3C//DTD SVG 1.1//EN" "http://www.w3.org/Graphics/SVG/1.1/DTD/svg11.dtd">
<svg version="1.1" id="Layer_1" xmlns="http://www.w3.org/2000/svg" xmlns:xlink="http://www.w3.org/1999/xlink" x="0px" y="0px"
	 width="46.458px" height="159.23px" viewBox="0 0 46.458 159.23" enable-background="new 0 0 46.458 159.23" xml:space="preserve">
<path d="M46.458,0c-2.772,1.248-5.308,2.942-7.454,5.408c-2.243,2.578-2.992,5.744-3.643,8.957
	c-1.032,5.117-2.201,10.213-3.039,15.362c-0.709,4.368-1.081,8.793-1.512,13.202c-0.671,6.868-1.235,13.748-1.901,20.617
	c-0.424,4.391-0.828,8.729-2.265,13.019c-1.9,5.675-3.401,11.543-4.424,17.442c-1.302,7.504-1.881,15.128-2.919,22.681
	c-0.54,3.938-1.706,7.584-5.291,10.085c-1.879,1.311-3.441,3.119-5.01,4.828c-2.841,3.098-5.579,6.292-8.36,9.444
	c-0.098,0.111-0.267,0.201-0.289,0.322c-0.146,0.747-0.5,1.582-0.282,2.213c0.109,0.322,1.381,0.567,1.93,0.349
	c1.122-0.449,2.156-1.174,3.143-1.897c1.057-0.777,2.017-1.683,3.484-2.926c-5.154,9.808-5.915,12.278-6.379,14.04
	c-0.465,1.761-0.633,2.817-0.253,3.43c0.379,0.612,1.308,0.779,2.068,0.105c0.759-0.676,1.351-2.194,2.238-4.137
	c0.885-1.942,2.067-4.306,2.827-5.636c0.761-1.331,1.098-1.626,1.393-1.646c0.297-0.022,0.549,0.23,0.127,2.3
	c-0.422,2.068-1.52,5.952-2.068,8.128c-0.549,2.172-0.549,2.638-0.106,3.039c0.444,0.4,1.331,0.739,2,0.286
	c0.67-0.455,1.121-1.7,1.679-3.944c0.558-2.241,1.223-5.48,1.763-7.172c0.541-1.689,0.956-1.827,1.246-1.787
	c0.292,0.043,0.457,0.265,0.502,2.104c0.045,1.843-0.031,5.304,0.085,7.444c0.115,2.141,0.423,2.961,0.918,3.236
	c0.497,0.273,1.181,0,1.557-0.77s0.445-2.035,0.427-4.036c-0.017-2.001-0.118-4.737-0.085-6.241
	c0.034-1.505,0.205-1.778,0.444-1.933c0.239-0.153,0.548-0.188,0.889,0.701c0.343,0.889,0.719,2.702,1.146,3.917
	c0.429,1.212,0.907,1.828,1.471,2c0.564,0.17,1.215-0.104,1.368-0.854c0.153-0.755-0.188-1.985-0.615-3.813
	c-0.428-1.831-0.941-4.26-1.249-6.241c-0.308-1.983-0.41-3.522,2.119-8.568c1.259-2.446,2.098-5.106,3.313-7.669
	c4.646-9.796,8.359-19.903,11.153-30.332c1.725-6.436,2.72-13.063,4.156-19.58c1.165-5.292,2.526-10.542,3.699-15.832
	C46.458,39.764,46.458,19.881,46.458,0z"/>
</svg>
