<?xml version="1.0" encoding="utf-8"?>
<!-- Generator: Adobe Illustrator 16.0.0, SVG Export Plug-In . SVG Version: 6.00 Build 0)  -->
<!DOCTYPE svg PUBLIC "-//W3C//DTD SVG 1.1//EN" "http://www.w3.org/Graphics/SVG/1.1/DTD/svg11.dtd">
<svg version="1.1" id="Layer_1" xmlns="http://www.w3.org/2000/svg" xmlns:xlink="http://www.w3.org/1999/xlink" x="0px" y="0px"
	 width="41.587px" height="55.719px" viewBox="0 0 41.587 55.719" enable-background="new 0 0 41.587 55.719" xml:space="preserve">
<path d="M20.794,0C12.538,0,6.172,4.444,3.906,13.641c-0.904,3.674-0.246,7.937-3.545,10.886c-0.344,0.31-0.406,1.127-0.336,1.676
	c0.269,2.147,0.29,4.418,1.058,6.389c1.256,3.223,3.045,6.234,4.567,9.354c0.922,1.889,1.368,4.191,2.735,5.637
	c2.241,2.371,2.244,4.998,2.293,7.87c0.003,0.089,0.003,0.179,0.003,0.267c6.741,0,13.482,0,20.225,0c0-0.088,0-0.178,0.002-0.267
	c0.049-2.872,0.053-5.499,2.293-7.87c1.368-1.445,1.814-3.748,2.735-5.637c1.522-3.119,3.312-6.131,4.567-9.354
	c0.769-1.971,0.789-4.241,1.058-6.389c0.069-0.549,0.009-1.366-0.336-1.676c-3.298-2.949-2.64-7.212-3.544-10.886
	C35.416,4.444,29.049,0,20.794,0z"/>
</svg>
