<?xml version="1.0" encoding="utf-8"?>
<!-- Generator: Adobe Illustrator 16.0.0, SVG Export Plug-In . SVG Version: 6.00 Build 0)  -->
<!DOCTYPE svg PUBLIC "-//W3C//DTD SVG 1.1//EN" "http://www.w3.org/Graphics/SVG/1.1/DTD/svg11.dtd">
<svg version="1.1" id="Layer_1" xmlns="http://www.w3.org/2000/svg" xmlns:xlink="http://www.w3.org/1999/xlink" x="0px" y="0px"
	 width="74.382px" height="46.343px" viewBox="0 0 74.382 46.343" enable-background="new 0 0 74.382 46.343" xml:space="preserve">
<path d="M71.02,5.729C70.874,3.69,70.686,1.787,70.459,0C48.282,0,26.101,0,3.922,0C3.697,1.787,3.509,3.69,3.361,5.729
	C2.662,12.268,1.21,20.703,0.485,28.894C0.178,32.373,0,35.808,0,40.042c0,1.984,0.039,4.146,0.061,6.57c11.834,0,23.669,0,35.504,0
	c0.006-0.088,0.016-0.18,0.023-0.27c0.264-2.973,0.43-5.953,0.768-8.916c0.072-0.646,0.428-1.26,0.836-2.107
	c0.408,0.848,0.762,1.461,0.834,2.107c0.336,2.963,0.504,5.943,0.768,8.916c0.008,0.09,0.016,0.182,0.023,0.27
	c11.814,0,23.629,0,35.443,0c0.084-2.424,0.123-4.584,0.123-6.57c0-4.234-0.178-7.669-0.486-11.149
	C73.17,20.703,71.719,12.268,71.02,5.729z"/>
</svg>
