<?xml version="1.0" encoding="utf-8"?>
<!-- Generator: Adobe Illustrator 16.0.0, SVG Export Plug-In . SVG Version: 6.00 Build 0)  -->
<!DOCTYPE svg PUBLIC "-//W3C//DTD SVG 1.1//EN" "http://www.w3.org/Graphics/SVG/1.1/DTD/svg11.dtd">
<svg version="1.1" id="Layer_1" xmlns="http://www.w3.org/2000/svg" xmlns:xlink="http://www.w3.org/1999/xlink" x="0px" y="0px"
	 width="74.201px" height="206.544px" viewBox="0 0 74.201 206.544" enable-background="new 0 0 74.201 206.544"
	 xml:space="preserve">
<path d="M0,0c0.218,4.578,0.53,10.094,1.031,17.13C2.364,35.836,5.029,65.299,2.61,83.022C2.535,95.269,2.481,96.981,2.475,98.701
	c-0.002,0.642,0.002,1.283,0.261,5.732c0.245,4.198,0.818,8.396,1.545,12.541c0.888,5.062,2.093,10.065,3.147,15.096
	c1.025,4.896,2.076,9.788,3.035,14.696c0.654,3.344,1.222,6.705,1.736,10.072c0.372,2.445,0.74,4.908,0.848,7.373
	c0.138,3.238,0.275,6.516-0.056,9.729c-0.352,3.404-1.144,6.725-0.079,10.154c0.337,1.084,0.382,2.455,0.027,3.516
	c-1.03,3.094-2.321,6.098-3.527,9.127c-1.462,3.678-1.053,5.199,2.563,6.807c2.598,1.156,5.447,1.738,8.174,2.613
	c2.483,0.795,3.984,0.469,5.018-1.924c1.044-2.42,2.056-5.09,2.094-7.666c0.107-6.99-0.415-13.986-0.479-20.984
	c-0.036-3.979-0.392-7.828-1.757-11.605c-0.606-1.678-0.977-3.551-0.949-5.33c0.123-7.871,0.397-15.742,0.687-23.61
	c0.109-2.982,0.422-5.958,0.617-8.938c0.431-6.603,1.107-13.205,1.196-19.813c0.1-7.364-0.383-14.732-0.53-22.102
	c-0.084-4.185-0.087-8.372,0.034-12.554c0.063-2.174,0.37-4.354,0.746-6.501c1.252-7.145,2.715-14.252,3.85-21.413
	c1.068-6.735,1.953-13.505,2.686-20.285C34.207,15.636,34.812,7.813,35.503,0C23.669,0,11.834,0,0,0z"/>
<path d="M38.757,0c0.691,7.813,1.297,15.636,2.141,23.433c0.736,6.78,1.619,13.55,2.688,20.285c1.137,7.161,2.6,14.269,3.85,21.413
	c0.377,2.147,0.684,4.327,0.748,6.501c0.119,4.182,0.117,8.369,0.031,12.554c-0.146,7.369-0.629,14.737-0.527,22.102
	c0.088,6.607,0.766,13.21,1.195,19.813c0.193,2.979,0.508,5.955,0.617,8.938c0.289,7.868,0.563,15.739,0.686,23.61
	c0.027,1.779-0.342,3.652-0.949,5.33c-1.365,3.777-1.719,7.627-1.756,11.605c-0.063,6.998-0.586,13.994-0.48,20.984
	c0.039,2.576,1.051,5.246,2.096,7.666c1.033,2.393,2.535,2.719,5.016,1.924c2.729-0.875,5.578-1.457,8.176-2.613
	c3.615-1.607,4.023-3.129,2.563-6.807c-1.207-3.029-2.496-6.033-3.529-9.127c-0.352-1.061-0.309-2.432,0.027-3.516
	c1.066-3.43,0.273-6.75-0.076-10.154c-0.332-3.213-0.195-6.49-0.057-9.729c0.107-2.465,0.475-4.928,0.848-7.373
	c0.514-3.367,1.082-6.729,1.736-10.072c0.959-4.908,2.008-9.799,3.033-14.696c1.057-5.03,2.262-10.034,3.15-15.096
	c0.727-4.145,1.299-8.343,1.543-12.541c0.26-4.449,0.264-5.091,0.262-5.732c-0.008-1.72-0.061-3.433-0.135-15.679
	c-2.42-17.724,0.244-47.187,1.578-65.893C73.732,10.094,74.042,4.578,74.201,0C62.386,0,50.572,0,38.757,0z"/>
</svg>
