<?xml version="1.0" encoding="utf-8"?>
<!-- Generator: Adobe Illustrator 16.0.0, SVG Export Plug-In . SVG Version: 6.00 Build 0)  -->
<!DOCTYPE svg PUBLIC "-//W3C//DTD SVG 1.1//EN" "http://www.w3.org/Graphics/SVG/1.1/DTD/svg11.dtd">
<svg version="1.1" id="Layer_1" xmlns="http://www.w3.org/2000/svg" xmlns:xlink="http://www.w3.org/1999/xlink" x="0px" y="0px"
	 width="41.587px" height="55.719px" viewBox="0 0 41.587 55.719" enable-background="new 0 0 41.587 55.719" xml:space="preserve">
<path d="M47.41,62.039c1.666-6.506,3.445-12.983,5.175-19.471c0.293-1.099,0.679-2.171,1.022-3.254
	c0.183-0.026,0.367-0.052,0.552-0.078c0.478,2.655,1.009,5.302,1.425,7.967c0.629,4.015,0.985,8.08,1.804,12.053
	c0.191,0.93,0.392,1.856,0.597,2.783c0-19.881,0-39.764,0-59.645c-2.371-1.066-4.914-1.806-7.537-2.419
	c-4.804-1.124-9.64-2.24-13.785-5.154c-3.693-2.595-5.757-5.998-5.757-10.605c-6.742,0-13.483,0-20.225,0
	c0,4.608-2.063,8.01-5.757,10.605C0.777-2.266-4.058-1.149-8.861-0.025c-2.623,0.614-5.166,1.353-7.537,2.419
	c0,19.881,0,39.764,0,59.645c0.205-0.927,0.404-1.854,0.596-2.783c0.819-3.973,1.176-8.038,1.805-12.053
	c0.416-2.665,0.946-5.312,1.424-7.967c0.186,0.026,0.368,0.052,0.553,0.078c0.344,1.083,0.729,2.155,1.021,3.254
	c1.729,6.487,3.51,12.965,5.176,19.471C11.92,62.039,29.664,62.039,47.41,62.039z"/>
</svg>
